<?xml version="1.0" encoding="UTF-8" standalone="no"?>
<!DOCTYPE svg PUBLIC "-//W3C//DTD SVG 1.1//EN" "http://www.w3.org/Graphics/SVG/1.1/DTD/svg11.dtd">
<svg width="100%" height="100%" viewBox="0 0 106 34" version="1.1" xmlns="http://www.w3.org/2000/svg" xmlns:xlink="http://www.w3.org/1999/xlink" xml:space="preserve" xmlns:serif="http://www.serif.com/" style="fill-rule:evenodd;clip-rule:evenodd;stroke-linejoin:round;stroke-miterlimit:2;">
    <g transform="matrix(1,0,0,1,1,2)">
        <path d="M64.399,25.025C58.414,29.573 49.738,32 42.268,32C31.795,32 22.366,28.006 15.233,21.364C14.672,20.842 15.175,20.13 15.847,20.537C23.545,25.154 33.064,27.932 42.896,27.932C49.527,27.932 56.822,26.518 63.529,23.583C64.543,23.139 65.39,24.267 64.399,25.025Z" style="fill:rgb(255,153,0);"/>
    </g>
    <g transform="matrix(1,0,0,1,1,2)">
        <path d="M66.888,22.09C66.126,21.082 61.83,21.614 59.902,21.849C59.315,21.923 59.225,21.396 59.754,21.017C63.175,18.535 68.789,19.252 69.443,20.084C70.098,20.92 69.273,26.721 66.058,29.49C65.565,29.915 65.094,29.689 65.314,29.125C66.036,27.267 67.654,23.102 66.888,22.09Z" style="fill:rgb(255,153,0);"/>
    </g>
    <g transform="matrix(1,0,0,1,1,2)">
        <path d="M60.037,3.494L60.037,1.082C60.037,0.716 60.306,0.471 60.629,0.471L71.107,0.471C71.443,0.471 71.712,0.721 71.712,1.082L71.712,3.148C71.707,3.494 71.425,3.947 70.923,4.664L65.493,12.656C67.511,12.605 69.641,12.915 71.47,13.978C71.882,14.218 71.994,14.569 72.026,14.916L72.026,17.491C72.026,17.842 71.649,18.253 71.254,18.041C68.031,16.298 63.749,16.109 60.185,18.059C59.822,18.263 59.44,17.856 59.44,17.505L59.44,15.059C59.44,14.666 59.445,13.996 59.826,13.4L66.116,4.1L60.642,4.1C60.306,4.1 60.037,3.855 60.037,3.494Z" style="fill:none;stroke:rgb(217,217,217);stroke-width:2.5px;"/>
        <path d="M60.037,3.494L60.037,1.082C60.037,0.716 60.306,0.471 60.629,0.471L71.107,0.471C71.443,0.471 71.712,0.721 71.712,1.082L71.712,3.148C71.707,3.494 71.425,3.947 70.923,4.664L65.493,12.656C67.511,12.605 69.641,12.915 71.47,13.978C71.882,14.218 71.994,14.569 72.026,14.916L72.026,17.491C72.026,17.842 71.649,18.253 71.254,18.041C68.031,16.298 63.749,16.109 60.185,18.059C59.822,18.263 59.44,17.856 59.44,17.505L59.44,15.059C59.44,14.666 59.445,13.996 59.826,13.4L66.116,4.1L60.642,4.1C60.306,4.1 60.037,3.855 60.037,3.494Z"/>
    </g>
    <g transform="matrix(1,0,0,1,1,2)">
        <path d="M21.815,18.549L18.627,18.549C18.322,18.526 18.08,18.29 18.057,17.99L18.057,1.123C18.057,0.786 18.331,0.518 18.672,0.518L21.644,0.518C21.954,0.532 22.2,0.777 22.223,1.082L22.223,3.287L22.281,3.287C23.057,1.156 24.514,0.162 26.477,0.162C28.473,0.162 29.719,1.156 30.616,3.287C31.387,1.156 33.14,0.162 35.019,0.162C36.355,0.162 37.816,0.73 38.709,2.006C39.717,3.425 39.511,5.487 39.511,7.294L39.507,17.939C39.507,18.277 39.233,18.549 38.892,18.549L35.709,18.549C35.391,18.526 35.135,18.263 35.135,17.939L35.135,9C35.135,8.288 35.198,6.513 35.045,5.838C34.808,4.706 34.095,4.387 33.171,4.387C32.4,4.387 31.593,4.918 31.266,5.769C30.939,6.619 30.97,8.043 30.97,9L30.97,17.939C30.97,18.277 30.696,18.549 30.356,18.549L27.172,18.549C26.85,18.526 26.599,18.263 26.599,17.939L26.594,9C26.594,7.118 26.894,4.35 24.63,4.35C22.339,4.35 22.429,7.049 22.429,9L22.429,17.939C22.429,18.277 22.155,18.549 21.815,18.549Z" style="fill:none;stroke:rgb(217,217,217);stroke-width:2.5px;"/>
        <path d="M21.815,18.549L18.627,18.549C18.322,18.526 18.08,18.29 18.057,17.99L18.057,1.123C18.057,0.786 18.331,0.518 18.672,0.518L21.644,0.518C21.954,0.532 22.2,0.777 22.223,1.082L22.223,3.287L22.281,3.287C23.057,1.156 24.514,0.162 26.477,0.162C28.473,0.162 29.719,1.156 30.616,3.287C31.387,1.156 33.14,0.162 35.019,0.162C36.355,0.162 37.816,0.73 38.709,2.006C39.717,3.425 39.511,5.487 39.511,7.294L39.507,17.939C39.507,18.277 39.233,18.549 38.892,18.549L35.709,18.549C35.391,18.526 35.135,18.263 35.135,17.939L35.135,9C35.135,8.288 35.198,6.513 35.045,5.838C34.808,4.706 34.095,4.387 33.171,4.387C32.4,4.387 31.593,4.918 31.266,5.769C30.939,6.619 30.97,8.043 30.97,9L30.97,17.939C30.97,18.277 30.696,18.549 30.356,18.549L27.172,18.549C26.85,18.526 26.599,18.263 26.599,17.939L26.594,9C26.594,7.118 26.894,4.35 24.63,4.35C22.339,4.35 22.429,7.049 22.429,9L22.429,17.939C22.429,18.277 22.155,18.549 21.815,18.549Z"/>
    </g>
    <g transform="matrix(1,0,0,1,1,2)">
        <path d="M80.733,0.162C85.463,0.162 88.023,4.35 88.023,9.675C88.023,14.819 85.194,18.901 80.733,18.901C76.088,18.901 73.559,14.713 73.559,9.494C73.559,4.243 76.119,0.162 80.733,0.162ZM80.759,3.605C78.41,3.605 78.262,6.906 78.262,8.963C78.262,11.024 78.231,15.425 80.733,15.425C83.203,15.425 83.32,11.875 83.32,9.711C83.32,8.288 83.261,6.587 82.844,5.237C82.486,4.063 81.773,3.605 80.759,3.605Z" style="fill:none;stroke:rgb(217,217,217);stroke-width:2.5px;"/>
        <path d="M80.733,0.162C85.463,0.162 88.023,4.35 88.023,9.675C88.023,14.819 85.194,18.901 80.733,18.901C76.088,18.901 73.559,14.713 73.559,9.494C73.559,4.243 76.119,0.162 80.733,0.162ZM80.759,3.605C78.41,3.605 78.262,6.906 78.262,8.963C78.262,11.024 78.231,15.425 80.733,15.425C83.203,15.425 83.32,11.875 83.32,9.711C83.32,8.288 83.261,6.587 82.844,5.237C82.486,4.063 81.773,3.605 80.759,3.605Z"/>
    </g>
    <g transform="matrix(1,0,0,1,1,2)">
        <path d="M94.156,18.549L90.982,18.549C90.664,18.526 90.408,18.263 90.408,17.939L90.404,1.068C90.431,0.758 90.695,0.518 91.018,0.518L93.972,0.518C94.25,0.532 94.479,0.726 94.542,0.989L94.542,3.568L94.6,3.568C95.492,1.262 96.743,0.162 98.945,0.162C100.375,0.162 101.769,0.693 102.666,2.149C103.5,3.499 103.5,5.769 103.5,7.4L103.5,18.018C103.464,18.314 103.2,18.549 102.886,18.549L99.689,18.549C99.397,18.526 99.155,18.304 99.124,18.018L99.124,8.856C99.124,7.012 99.33,4.313 97.129,4.313C96.353,4.313 95.64,4.849 95.286,5.662C94.838,6.693 94.78,7.719 94.78,8.856L94.78,17.939C94.775,18.277 94.497,18.549 94.156,18.549Z" style="fill:none;stroke:rgb(217,217,217);stroke-width:2.5px;"/>
        <path d="M94.156,18.549L90.982,18.549C90.664,18.526 90.408,18.263 90.408,17.939L90.404,1.068C90.431,0.758 90.695,0.518 91.018,0.518L93.972,0.518C94.25,0.532 94.479,0.726 94.542,0.989L94.542,3.568L94.6,3.568C95.492,1.262 96.743,0.162 98.945,0.162C100.375,0.162 101.769,0.693 102.666,2.149C103.5,3.499 103.5,5.769 103.5,7.4L103.5,18.018C103.464,18.314 103.2,18.549 102.886,18.549L99.689,18.549C99.397,18.526 99.155,18.304 99.124,18.018L99.124,8.856C99.124,7.012 99.33,4.313 97.129,4.313C96.353,4.313 95.64,4.849 95.286,5.662C94.838,6.693 94.78,7.719 94.78,8.856L94.78,17.939C94.775,18.277 94.497,18.549 94.156,18.549Z"/>
    </g>
    <g transform="matrix(1,0,0,1,1,2)">
        <path d="M51.684,10.493C51.684,11.773 51.715,12.841 51.088,13.978C50.581,14.902 49.774,15.471 48.882,15.471C47.658,15.471 46.94,14.509 46.94,13.09C46.94,10.289 49.375,9.781 51.684,9.781L51.684,10.493ZM54.899,18.503C54.688,18.697 54.383,18.711 54.146,18.581C53.087,17.676 52.895,17.255 52.316,16.391C50.568,18.23 49.326,18.78 47.062,18.78C44.376,18.78 42.291,17.075 42.291,13.659C42.291,10.992 43.69,9.175 45.69,8.288C47.42,7.502 49.837,7.363 51.684,7.146L51.684,6.721C51.684,5.94 51.742,5.015 51.294,4.34C50.908,3.735 50.164,3.485 49.505,3.485C48.29,3.485 47.209,4.128 46.945,5.459C46.891,5.755 46.68,6.046 46.389,6.06L43.3,5.718C43.04,5.658 42.748,5.44 42.825,5.029C43.533,1.165 46.923,0 49.953,0C51.505,0 53.531,0.425 54.755,1.636C56.307,3.129 56.159,5.121 56.159,7.289L56.159,12.411C56.159,13.95 56.777,14.625 57.36,15.457C57.562,15.753 57.607,16.109 57.347,16.331C56.697,16.89 55.54,17.93 54.903,18.512L54.899,18.503Z" style="fill:none;stroke:rgb(217,217,217);stroke-width:2.5px;"/>
        <path d="M51.684,10.493C51.684,11.773 51.715,12.841 51.088,13.978C50.581,14.902 49.774,15.471 48.882,15.471C47.658,15.471 46.94,14.509 46.94,13.09C46.94,10.289 49.375,9.781 51.684,9.781L51.684,10.493ZM54.899,18.503C54.688,18.697 54.383,18.711 54.146,18.581C53.087,17.676 52.895,17.255 52.316,16.391C50.568,18.23 49.326,18.78 47.062,18.78C44.376,18.78 42.291,17.075 42.291,13.659C42.291,10.992 43.69,9.175 45.69,8.288C47.42,7.502 49.837,7.363 51.684,7.146L51.684,6.721C51.684,5.94 51.742,5.015 51.294,4.34C50.908,3.735 50.164,3.485 49.505,3.485C48.29,3.485 47.209,4.128 46.945,5.459C46.891,5.755 46.68,6.046 46.389,6.06L43.3,5.718C43.04,5.658 42.748,5.44 42.825,5.029C43.533,1.165 46.923,0 49.953,0C51.505,0 53.531,0.425 54.755,1.636C56.307,3.129 56.159,5.121 56.159,7.289L56.159,12.411C56.159,13.95 56.777,14.625 57.36,15.457C57.562,15.753 57.607,16.109 57.347,16.331C56.697,16.89 55.54,17.93 54.903,18.512L54.899,18.503Z"/>
    </g>
    <g transform="matrix(1,0,0,1,1,2)">
        <path d="M9.893,10.493C9.893,11.773 9.924,12.841 9.297,13.978C8.79,14.902 7.987,15.471 7.091,15.471C5.867,15.471 5.154,14.509 5.154,13.091C5.154,10.289 7.588,9.781 9.893,9.781L9.893,10.493ZM13.108,18.503C12.897,18.697 12.592,18.711 12.354,18.582C11.296,17.676 11.108,17.255 10.525,16.391C8.777,18.231 7.539,18.781 5.27,18.781C2.589,18.781 0.5,17.075 0.5,13.659C0.5,10.992 1.903,9.175 3.899,8.288C5.629,7.502 8.046,7.364 9.893,7.146L9.893,6.721C9.893,5.94 9.951,5.015 9.507,4.341C9.117,3.735 8.373,3.485 7.718,3.485C6.503,3.485 5.418,4.128 5.154,5.459C5.1,5.755 4.889,6.046 4.602,6.06L1.509,5.718C1.249,5.658 0.962,5.441 1.034,5.029C1.746,1.165 5.131,0 8.162,0C9.714,0 11.74,0.425 12.964,1.637C14.516,3.13 14.368,5.122 14.368,7.29L14.368,12.411C14.368,13.95 14.986,14.625 15.569,15.457C15.775,15.753 15.82,16.109 15.56,16.331C14.91,16.89 13.753,17.93 13.117,18.512L13.108,18.503Z" style="fill:none;stroke:rgb(217,217,217);stroke-width:2.5px;"/>
        <path d="M9.893,10.493C9.893,11.773 9.924,12.841 9.297,13.978C8.79,14.902 7.987,15.471 7.091,15.471C5.867,15.471 5.154,14.509 5.154,13.091C5.154,10.289 7.588,9.781 9.893,9.781L9.893,10.493ZM13.108,18.503C12.897,18.697 12.592,18.711 12.354,18.582C11.296,17.676 11.108,17.255 10.525,16.391C8.777,18.231 7.539,18.781 5.27,18.781C2.589,18.781 0.5,17.075 0.5,13.659C0.5,10.992 1.903,9.175 3.899,8.288C5.629,7.502 8.046,7.364 9.893,7.146L9.893,6.721C9.893,5.94 9.951,5.015 9.507,4.341C9.117,3.735 8.373,3.485 7.718,3.485C6.503,3.485 5.418,4.128 5.154,5.459C5.1,5.755 4.889,6.046 4.602,6.06L1.509,5.718C1.249,5.658 0.962,5.441 1.034,5.029C1.746,1.165 5.131,0 8.162,0C9.714,0 11.74,0.425 12.964,1.637C14.516,3.13 14.368,5.122 14.368,7.29L14.368,12.411C14.368,13.95 14.986,14.625 15.569,15.457C15.775,15.753 15.82,16.109 15.56,16.331C14.91,16.89 13.753,17.93 13.117,18.512L13.108,18.503Z"/>
    </g>
</svg>
