<?xml version="1.0" encoding="UTF-8" standalone="no"?>
<!DOCTYPE svg PUBLIC "-//W3C//DTD SVG 1.1//EN" "http://www.w3.org/Graphics/SVG/1.1/DTD/svg11.dtd">
<svg width="100%" height="100%" viewBox="0 0 60 60" version="1.1" xmlns="http://www.w3.org/2000/svg" xmlns:xlink="http://www.w3.org/1999/xlink" xml:space="preserve" xmlns:serif="http://www.serif.com/" style="fill-rule:evenodd;clip-rule:evenodd;stroke-linecap:round;stroke-linejoin:round;">
    <g transform="matrix(1,0,0,1,10,10)">
        <path d="M3.333,3.333L7.5,25.35L20.6,28.933L28.933,20.6L25.367,7.5L25.35,7.5L3.333,3.333Z" style="fill:none;fill-rule:nonzero;stroke:rgb(7,42,200);stroke-width:2.5px;"/>
    </g>
    <g transform="matrix(1,0,0,1,10,10)">
        <path d="M31.307,18.213L18.214,31.306L23.576,36.668L36.67,23.575L31.307,18.213Z" style="fill:none;fill-rule:nonzero;stroke:rgb(7,42,200);stroke-width:2.5px;"/>
    </g>
    <g transform="matrix(1,0,0,1,10,10)">
        <path d="M3.333,3.333L17.017,17.017" style="fill:none;fill-rule:nonzero;stroke:rgb(7,42,200);stroke-width:2.5px;"/>
    </g>
    <g transform="matrix(1,0,0,1,10,10)">
        <path d="M17.017,17.85C17.477,17.85 17.85,17.477 17.85,17.017C17.85,16.556 17.477,16.183 17.017,16.183C16.556,16.183 16.183,16.556 16.183,17.017C16.183,17.477 16.556,17.85 17.017,17.85Z" style="fill:none;fill-rule:nonzero;stroke:rgb(7,42,200);stroke-width:2.5px;stroke-miterlimit:10;"/>
    </g>
</svg>
