<?xml version="1.0" encoding="UTF-8" standalone="no"?>
<!DOCTYPE svg PUBLIC "-//W3C//DTD SVG 1.1//EN" "http://www.w3.org/Graphics/SVG/1.1/DTD/svg11.dtd">
<svg width="100%" height="100%" viewBox="0 0 60 60" version="1.1" xmlns="http://www.w3.org/2000/svg" xmlns:xlink="http://www.w3.org/1999/xlink" xml:space="preserve" xmlns:serif="http://www.serif.com/" style="fill-rule:evenodd;clip-rule:evenodd;stroke-linecap:round;stroke-linejoin:round;stroke-miterlimit:10;">
    <g transform="matrix(1,0,0,1,10,10)">
        <path d="M28.817,3.817L36.167,11.167C36.483,11.483 36.667,11.917 36.667,12.35L36.667,35C36.667,35.917 35.917,36.667 35,36.667L5,36.667C4.083,36.667 3.333,35.917 3.333,35L3.333,5C3.333,4.083 4.083,3.333 5,3.333L27.65,3.333C28.083,3.333 28.517,3.517 28.817,3.817Z" style="fill:none;fill-rule:nonzero;stroke:rgb(7,42,200);stroke-width:2.5px;"/>
    </g>
    <g transform="matrix(1,0,0,1,10,10)">
        <path d="M26.667,25L31.667,20L26.667,15" style="fill:none;fill-rule:nonzero;stroke:rgb(7,42,200);stroke-width:2.5px;stroke-miterlimit:4;"/>
    </g>
    <g transform="matrix(1,0,0,1,10,10)">
        <path d="M13.333,25L8.333,20L13.333,15" style="fill:none;fill-rule:nonzero;stroke:rgb(7,42,200);stroke-width:2.5px;stroke-miterlimit:4;"/>
    </g>
    <g transform="matrix(1,0,0,1,10,10)">
        <path d="M16.967,28.333L23.034,11.667" style="fill:none;fill-rule:nonzero;stroke:rgb(7,42,200);stroke-width:2.5px;stroke-miterlimit:4;"/>
    </g>
</svg>
